{
  "source": "C:\\Users\\Peter\\Desktop\\stuff\\MIUN\\quantitative_research\\video_compression\\videos\\BVI-HD\\BVI-HD_CDVL_videos\\ORIG\\BallUnderWater_1920x1080_60fps.mp4",
  "output": "C:\\Users\\Peter\\Desktop\\stuff\\MIUN\\quantitative_research\\video_compression\\compressed_videos\\BVI-HD\\vp9\\8\\BallUnderWater_1920x1080_60fps_vp9.webm",
  "codec": "vp9",
  "ok": "Input #0, mov,mp4,m4a,3gp,3g2,mj2, from 'C:\\Users\\Peter\\Desktop\\stuff\\MIUN\\quantitative_research\\video_compression\\videos\\BVI-HD\\BVI-HD_CDVL_videos\\ORIG\\BallUnderWater_1920x1080_60fps.mp4':\n  Metadata:\n    major_brand     : isom\n    minor_version   : 512\n    compatible_brands: isomiso2avc1mp41\n    encoder         : Lavf54.28.101\n  Duration: 00:00:05.00, start: 0.000000, bitrate: 212030 kb/s\n  Stream #0:0[0x1](und): Video: h264 (High 4:4:4 Predictive) (avc1 / 0x31637661), yuv420p(progressive), 1920x1080, 212025 kb/s, 60 fps, 60 tbr, 60 tbn (default)\n    Metadata:\n      handler_name    : VideoHandler\n      vendor_id       : [0][0][0][0]\n[out#0/webm @ 0000019e618da040] Codec AVOption b:a (set bitrate (in bits/s)) has not been used for any stream. The most likely reason is either wrong type (e.g. a video option with no video streams) or that it is a private option of some decoder which was not actually used for any stream.\nStream mapping:\n  Stream #0:0 -> #0:0 (h264 (native) -> vp9 (libvpx-vp9))\nPress [q] to stop, [?] for help\n[libvpx-vp9 @ 0000019e61794b00] v1.15.2-100-g40561f514\nOutput #0, webm, to 'C:\\Users\\Peter\\Desktop\\stuff\\MIUN\\quantitative_research\\video_compression\\compressed_videos\\BVI-HD\\vp9\\8\\BallUnderWater_1920x1080_60fps_vp9.webm':\n  Metadata:\n    major_brand     : isom\n    minor_version   : 512\n    compatible_brands: isomiso2avc1mp41\n    encoder         : Lavf62.3.100\n  Stream #0:0(und): Video: vp9, yuv420p(tv, progressive), 1920x1080, q=2-31, 8000 kb/s, 60 fps, 1k tbn (default)\n    Metadata:\n      encoder         : Lavc62.11.100 libvpx-vp9\n      handler_name    : VideoHandler\n      vendor_id       : [0][0][0][0]\n    Side data:\n      cpb: bitrate max/min/avg: 0/0/0 buffer size: 8000000 vbv_delay: N/A\nframe=    1 fps=0.0 q=12.0 size=       1KiB time=00:00:00.01 bitrate= 303.8kbits/s speed=0.033x elapsed=0:00:00.50    \nframe=    8 fps=7.9 q=32.0 size=       1KiB time=00:00:00.11 bitrate=  43.4kbits/s speed=0.114x elapsed=0:00:01.01    \nframe=   13 fps=8.2 q=21.0 size=       1KiB time=00:00:00.21 bitrate=  23.4kbits/s speed=0.136x elapsed=0:00:01.58    \nframe=   19 fps=8.8 q=31.0 size=       1KiB time=00:00:00.31 bitrate=  16.0kbits/s speed=0.147x elapsed=0:00:02.15    \nframe=   24 fps=8.8 q=31.0 size=       1KiB time=00:00:00.40 bitrate=  12.7kbits/s speed=0.147x elapsed=0:00:02.72    \nframe=   29 fps=8.8 q=32.0 size=       1KiB time=00:00:00.48 bitrate=  10.5kbits/s speed=0.147x elapsed=0:00:03.28    \nframe=   34 fps=8.9 q=35.0 size=       1KiB time=00:00:00.56 bitrate=   8.9kbits/s speed=0.149x elapsed=0:00:03.80    \nframe=   39 fps=9.0 q=34.0 size=       1KiB time=00:00:00.65 bitrate=   7.8kbits/s speed=0.15x elapsed=0:00:04.31    \nframe=   44 fps=9.1 q=34.0 size=       1KiB time=00:00:00.73 bitrate=   6.9kbits/s speed=0.151x elapsed=0:00:04.84    \nframe=   49 fps=9.1 q=21.0 size=       1KiB time=00:00:00.81 bitrate=   6.2kbits/s speed=0.152x elapsed=0:00:05.37    \nframe=   54 fps=9.1 q=32.0 size=       1KiB time=00:00:00.90 bitrate=   5.6kbits/s speed=0.152x elapsed=0:00:05.91    \nframe=   59 fps=9.1 q=31.0 size=       1KiB time=00:00:00.98 bitrate=   5.1kbits/s speed=0.152x elapsed=0:00:06.46    \nframe=   63 fps=9.0 q=31.0 size=       1KiB time=00:00:01.05 bitrate=   4.8kbits/s speed=0.15x elapsed=0:00:06.99    \nframe=   67 fps=8.9 q=19.0 size=       1KiB time=00:00:01.11 bitrate=   4.5kbits/s speed=0.148x elapsed=0:00:07.53    \nframe=   72 fps=8.9 q=31.0 size=       1KiB time=00:00:01.20 bitrate=   4.2kbits/s speed=0.148x elapsed=0:00:08.08    \nframe=   78 fps=9.0 q=30.0 size=       1KiB time=00:00:01.30 bitrate=   3.9kbits/s speed=0.15x elapsed=0:00:08.68    \nframe=   83 fps=9.0 q=29.0 size=       1KiB time=00:00:01.38 bitrate=   3.7kbits/s speed=0.15x elapsed=0:00:09.22    \nframe=   87 fps=8.9 q=31.0 size=       1KiB time=00:00:01.45 bitrate=   3.5kbits/s speed=0.149x elapsed=0:00:09.73    \nframe=   92 fps=8.9 q=34.0 size=       1KiB time=00:00:01.53 bitrate=   3.3kbits/s speed=0.149x elapsed=0:00:10.29    \nframe=   97 fps=8.9 q=21.0 size=       1KiB time=00:00:01.61 bitrate=   3.1kbits/s speed=0.149x elapsed=0:00:10.84    \nframe=  102 fps=9.0 q=32.0 size=       1KiB time=00:00:01.70 bitrate=   3.0kbits/s speed=0.15x elapsed=0:00:11.35    \nframe=  108 fps=9.1 q=31.0 size=       1KiB time=00:00:01.80 bitrate=   2.8kbits/s speed=0.151x elapsed=0:00:11.89    \nframe=  113 fps=9.1 q=32.0 size=       1KiB time=00:00:01.88 bitrate=   2.7kbits/s speed=0.151x elapsed=0:00:12.46    \nframe=  118 fps=9.1 q=32.0 size=       1KiB time=00:00:01.96 bitrate=   2.6kbits/s speed=0.151x elapsed=0:00:13.01    \nframe=  123 fps=9.1 q=29.0 size=       1KiB time=00:00:02.05 bitrate=   2.5kbits/s speed=0.151x elapsed=0:00:13.54    \nframe=  128 fps=9.1 q=30.0 size=       1KiB time=00:00:02.13 bitrate=   2.4kbits/s speed=0.152x elapsed=0:00:14.07    \nframe=  134 fps=9.2 q=32.0 size=    1536KiB time=00:00:02.23 bitrate=5634.1kbits/s speed=0.153x elapsed=0:00:14.62    \nframe=  139 fps=9.1 q=31.0 size=    1536KiB time=00:00:02.31 bitrate=5431.5kbits/s speed=0.152x elapsed=0:00:15.19    \nframe=  144 fps=9.2 q=29.0 size=    1536KiB time=00:00:02.40 bitrate=5242.9kbits/s speed=0.153x elapsed=0:00:15.71    \nframe=  149 fps=9.2 q=29.0 size=    1536KiB time=00:00:02.48 bitrate=5066.9kbits/s speed=0.153x elapsed=0:00:16.23    \nframe=  154 fps=9.2 q=31.0 size=    1536KiB time=00:00:02.56 bitrate=4902.4kbits/s speed=0.153x elapsed=0:00:16.75    \nframe=  159 fps=9.2 q=18.0 size=    1536KiB time=00:00:02.65 bitrate=4748.3kbits/s speed=0.153x elapsed=0:00:17.30    \nframe=  164 fps=9.2 q=31.0 size=    1536KiB time=00:00:02.73 bitrate=4603.5kbits/s speed=0.153x elapsed=0:00:17.81    \nframe=  169 fps=9.2 q=30.0 size=    1536KiB time=00:00:02.81 bitrate=4467.3kbits/s speed=0.154x elapsed=0:00:18.34    \nframe=  174 fps=9.2 q=30.0 size=    1536KiB time=00:00:02.90 bitrate=4338.9kbits/s speed=0.154x elapsed=0:00:18.86    \nframe=  179 fps=9.2 q=29.0 size=    1536KiB time=00:00:02.98 bitrate=4217.7kbits/s speed=0.154x elapsed=0:00:19.40    \nframe=  184 fps=9.2 q=27.0 size=    1536KiB time=00:00:03.06 bitrate=4103.1kbits/s speed=0.154x elapsed=0:00:19.92    \nframe=  189 fps=9.2 q=16.0 size=    1536KiB time=00:00:03.15 bitrate=3994.6kbits/s speed=0.154x elapsed=0:00:20.45    \nframe=  194 fps=9.2 q=31.0 size=    1536KiB time=00:00:03.23 bitrate=3891.6kbits/s speed=0.154x elapsed=0:00:20.98    \nframe=  199 fps=9.3 q=31.0 size=    1536KiB time=00:00:03.31 bitrate=3793.8kbits/s speed=0.154x elapsed=0:00:21.50    \nframe=  204 fps=9.3 q=31.0 size=    1536KiB time=00:00:03.40 bitrate=3700.9kbits/s speed=0.154x elapsed=0:00:22.02    \nframe=  209 fps=9.3 q=32.0 size=    1536KiB time=00:00:03.48 bitrate=3612.3kbits/s speed=0.154x elapsed=0:00:22.58    \nframe=  214 fps=9.2 q=34.0 size=    1536KiB time=00:00:03.56 bitrate=3527.9kbits/s speed=0.154x elapsed=0:00:23.13    \nframe=  219 fps=9.3 q=22.0 size=    1536KiB time=00:00:03.65 bitrate=3447.4kbits/s speed=0.154x elapsed=0:00:23.67    \nframe=  224 fps=9.3 q=33.0 size=    1536KiB time=00:00:03.73 bitrate=3370.4kbits/s speed=0.154x elapsed=0:00:24.21    \nframe=  230 fps=9.3 q=32.0 size=    1536KiB time=00:00:03.83 bitrate=3282.5kbits/s speed=0.155x elapsed=0:00:24.75    \nframe=  235 fps=9.3 q=32.0 size=    1536KiB time=00:00:03.91 bitrate=3212.7kbits/s speed=0.154x elapsed=0:00:25.36    \nframe=  240 fps=9.3 q=31.0 size=    1536KiB time=00:00:04.00 bitrate=3145.7kbits/s speed=0.154x elapsed=0:00:25.89    \nframe=  245 fps=9.3 q=31.0 size=    1536KiB time=00:00:04.08 bitrate=3081.5kbits/s speed=0.154x elapsed=0:00:26.44    \nframe=  250 fps=9.3 q=30.0 size=    1536KiB time=00:00:04.16 bitrate=3019.9kbits/s speed=0.154x elapsed=0:00:26.97    \nframe=  256 fps=9.3 q=28.0 size=    1536KiB time=00:00:04.26 bitrate=2949.1kbits/s speed=0.155x elapsed=0:00:27.51    \nframe=  262 fps=9.3 q=30.0 size=    3072KiB time=00:00:04.36 bitrate=5763.2kbits/s speed=0.156x elapsed=0:00:28.06    \nframe=  268 fps=9.4 q=31.0 size=    3072KiB time=00:00:04.46 bitrate=5634.1kbits/s speed=0.156x elapsed=0:00:28.62    \nframe=  273 fps=9.4 q=33.0 size=    3072KiB time=00:00:04.55 bitrate=5531.0kbits/s speed=0.156x elapsed=0:00:29.17    \nframe=  276 fps=9.3 q=34.0 size=    3072KiB time=00:00:04.60 bitrate=5470.8kbits/s speed=0.155x elapsed=0:00:29.71    \nframe=  276 fps=9.1 q=34.0 size=    3072KiB time=00:00:04.60 bitrate=5470.8kbits/s speed=0.152x elapsed=0:00:30.25    \nframe=  276 fps=9.0 q=34.0 size=    3072KiB time=00:00:04.60 bitrate=5470.8kbits/s speed=0.149x elapsed=0:00:30.77    \nframe=  276 fps=8.8 q=34.0 size=    3072KiB time=00:00:04.60 bitrate=5470.8kbits/s speed=0.147x elapsed=0:00:31.29    \nframe=  276 fps=8.7 q=34.0 size=    3072KiB time=00:00:04.60 bitrate=5470.8kbits/s speed=0.145x elapsed=0:00:31.83    \n[out#0/webm @ 0000019e618da040] video:3897KiB audio:0KiB subtitle:0KiB other streams:0KiB global headers:0KiB muxing overhead: 0.071992%\nframe=  300 fps=9.4 q=29.0 Lsize=    3900KiB time=00:00:05.00 bitrate=6389.7kbits/s speed=0.156x elapsed=0:00:31.98    \n",
  "seconds": 32.266721963882446,
  "probe_out": {}
}